{
  "accessors": [
    {
      "bufferView": 2,
      "componentType": 5126,
      "count": 8434,
      "max": [
        2.584230899810791,
        3.919095039367676,
        5.70288610458374
      ],
      "min": [
        -2.584230899810791,
        0.7205229997634888,
        -5.073057651519775
      ],
      "type": "VEC3"
    },
    {
      "bufferView": 2,
      "byteOffset": 101208,
      "componentType": 5126,
      "count": 8434,
      "max": [
        1.0,
        1.0,
        1.0
      ],
      "min": [
        -1.0,
        -0.9999995231628418,
        -1.0
      ],
      "type": "VEC3"
    },
    {
      "bufferView": 1,
      "componentType": 5126,
      "count": 8434,
      "max": [
        0.9497252702713013,
        0.46099913120269775
      ],
      "min": [
        0.04751104116439819,
        0.05484771728515625
      ],
      "type": "VEC2"
    },
    {
      "bufferView": 0,
      "componentType": 5125,
      "count": 14136,
      "type": "SCALAR"
    },
    {
      "bufferView": 2,
      "byteOffset": 202416,
      "componentType": 5126,
      "count": 1584,
      "max": [
        0.697693407535553,
        0.7110434174537659,
        0.793184757232666
      ],
      "min": [
        -3.9534049034118652,
        -0.8753262162208557,
        -0.793184757232666
      ],
      "type": "VEC3"
    },
    {
      "bufferView": 2,
      "byteOffset": 221424,
      "componentType": 5126,
      "count": 1584,
      "max": [
        1.0,
        0.9980323910713196,
        0.9980323910713196
      ],
      "min": [
        -1.0,
        -0.9980323910713196,
        -0.9980323910713196
      ],
      "type": "VEC3"
    },
    {
      "bufferView": 1,
      "byteOffset": 67472,
      "componentType": 5126,
      "count": 1584,
      "max": [
        0.9372165203094482,
        0.10569596290588379
      ],
      "min": [
        0.5729203820228577,
        0.09484457969665527
      ],
      "type": "VEC2"
    },
    {
      "bufferView": 0,
      "byteOffset": 56544,
      "componentType": 5125,
      "count": 2856,
      "type": "SCALAR"
    },
    {
      "bufferView": 2,
      "byteOffset": 240432,
      "componentType": 5126,
      "count": 1584,
      "max": [
        0.697693407535553,
        0.7110434174537659,
        0.793184757232666
      ],
      "min": [
        -3.9534049034118652,
        -0.8753262162208557,
        -0.793184757232666
      ],
      "type": "VEC3"
    },
    {
      "bufferView": 2,
      "byteOffset": 259440,
      "componentType": 5126,
      "count": 1584,
      "max": [
        1.0,
        0.9980323910713196,
        0.9980323910713196
      ],
      "min": [
        -1.0,
        -0.9980323910713196,
        -0.9980323910713196
      ],
      "type": "VEC3"
    },
    {
      "bufferView": 1,
      "byteOffset": 80144,
      "componentType": 5126,
      "count": 1584,
      "max": [
        0.9372165203094482,
        0.10569596290588379
      ],
      "min": [
        0.5729203820228577,
        0.09484457969665527
      ],
      "type": "VEC2"
    },
    {
      "bufferView": 0,
      "byteOffset": 67968,
      "componentType": 5125,
      "count": 2856,
      "type": "SCALAR"
    }
  ],
  "asset": {
    "extras": {
      "author": "Skrekliam (https://sketchfab.com/Skrekliam)",
      "license": "CC-BY-4.0 (http://creativecommons.org/licenses/by/4.0/)",
      "source": "https://sketchfab.com/3d-models/low-poly-kia-ceed-2013-sw-0845c8e6907f43d781fda96217823132",
      "title": "[Low Poly] Kia Ceed 2013 SW"
    },
    "generator": "Sketchfab-16.12.0",
    "version": "2.0"
  },
  "bufferViews": [
    {
      "buffer": 0,
      "byteLength": 79392,
      "name": "floatBufferViews",
      "target": 34963
    },
    {
      "buffer": 0,
      "byteLength": 92816,
      "byteOffset": 79392,
      "byteStride": 8,
      "name": "floatBufferViews",
      "target": 34962
    },
    {
      "buffer": 0,
      "byteLength": 278448,
      "byteOffset": 172208,
      "byteStride": 12,
      "name": "floatBufferViews",
      "target": 34962
    }
  ],
  "buffers": [
    {
      "byteLength": 450656,
      "uri": "scene.bin"
    }
  ],
  "images": [
    {
      "uri": "textures/Material_baseColor.png"
    }
  ],
  "materials": [
    {
      "doubleSided": true,
      "name": "Material",
      "pbrMetallicRoughness": {
        "baseColorTexture": {
          "index": 0
        },
        "metallicFactor": 0.0,
        "roughnessFactor": 0.9
      }
    }
  ],
  "meshes": [
    {
      "name": "Object_0",
      "primitives": [
        {
          "attributes": {
            "NORMAL": 1,
            "POSITION": 0,
            "TEXCOORD_0": 2
          },
          "indices": 3,
          "material": 0,
          "mode": 4
        }
      ]
    },
    {
      "name": "Object_1",
      "primitives": [
        {
          "attributes": {
            "NORMAL": 5,
            "POSITION": 4,
            "TEXCOORD_0": 6
          },
          "indices": 7,
          "material": 0,
          "mode": 4
        }
      ]
    },
    {
      "name": "Object_2",
      "primitives": [
        {
          "attributes": {
            "NORMAL": 9,
            "POSITION": 8,
            "TEXCOORD_0": 10
          },
          "indices": 11,
          "material": 0,
          "mode": 4
        }
      ]
    }
  ],
  "nodes": [
    {
      "children": [
        1
      ],
      "matrix": [
        0.4296118915081024,
        0.0,
        0.0,
        0.0,
        0.0,
        9.539300272101201e-17,
        -0.4296118915081024,
        0.0,
        0.0,
        0.4296118915081024,
        9.539300272101201e-17,
        0.0,
        0.0,
        0.0,
        0.0,
        1.0
      ],
      "name": "Sketchfab_model"
    },
    {
      "children": [
        2
      ],
      "name": "root"
    },
    {
      "children": [
        3,
        5,
        7
      ],
      "matrix": [
        1.0,
        0.0,
        0.0,
        0.0,
        0.0,
        2.220446049250313e-16,
        1.0,
        0.0,
        0.0,
        -1.0,
        2.220446049250313e-16,
        0.0,
        0.0,
        0.0,
        0.0,
        1.0
      ],
      "name": "GLTF_SceneRootNode"
    },
    {
      "children": [
        4
      ],
      "name": "car body_0"
    },
    {
      "mesh": 0,
      "name": "Object_4"
    },
    {
      "children": [
        6
      ],
      "matrix": [
        1.0,
        0.0,
        0.0,
        0.0,
        0.0,
        1.0,
        0.0,
        0.0,
        0.0,
        0.0,
        1.0,
        0.0,
        1.6278557777404785,
        1.0809308290481567,
        3.513913154602051,
        1.0
      ],
      "name": "wheel FL_1"
    },
    {
      "mesh": 1,
      "name": "Object_6"
    },
    {
      "children": [
        8
      ],
      "matrix": [
        1.0,
        0.0,
        0.0,
        0.0,
        0.0,
        1.0,
        0.0,
        0.0,
        0.0,
        0.0,
        1.0,
        0.0,
        1.6278557777404785,
        1.0809308290481567,
        -2.911250114440918,
        1.0
      ],
      "name": "wheel FL.001_2"
    },
    {
      "mesh": 2,
      "name": "Object_8"
    }
  ],
  "samplers": [
    {
      "magFilter": 9729,
      "minFilter": 9987,
      "wrapS": 10497,
      "wrapT": 10497
    }
  ],
  "scene": 0,
  "scenes": [
    {
      "name": "Sketchfab_Scene",
      "nodes": [
        0
      ]
    }
  ],
  "textures": [
    {
      "sampler": 0,
      "source": 0
    }
  ]
}
